<svg id="Group_23" data-name="Group 23" xmlns="http://www.w3.org/2000/svg" xmlns:xlink="http://www.w3.org/1999/xlink" width="230.021" height="41.396" viewBox="0 0 230.021 41.396">
  <defs>
    <clipPath id="clip-path">
      <rect id="Rectangle_2" data-name="Rectangle 2" width="31.016" height="34.217" fill="none"/>
    </clipPath>
    <clipPath id="clip-path-2">
      <rect id="Rectangle_3" data-name="Rectangle 3" width="190.765" height="41.397" fill="none"/>
    </clipPath>
  </defs>
  <g id="Group_2" data-name="Group 2" transform="translate(0 3.59)">
    <g id="Group_1" data-name="Group 1" transform="translate(0 0)" clip-path="url(#clip-path)">
      <path id="Path_5" data-name="Path 5" d="M6.98,347.266A8.6,8.6,0,0,0,4.7,348.451a2.973,2.973,0,0,0-1.031,2.172,2.691,2.691,0,0,0,1.877,1.5c2.578.46,4.943-.454,7.234-1.547,2.688-1.28,5.359-2.61,8.084-3.81a25.732,25.732,0,0,1,3.593-1.065,4.833,4.833,0,0,1,5.481,1.6c1.13,1.408,1.437,4.208.58,5.562-1.26,1.993-3.267,2.437-5.455,2.408a7.279,7.279,0,0,1-1.187-.238c1.175-.763,2.242-1.365,3.2-2.1,1.006-.78,1.792-1.978.926-3.061a3.883,3.883,0,0,0-2.882-1.066,11.166,11.166,0,0,0-3.729,1.134c-3.606,1.576-7.112,3.4-10.784,4.8a17.529,17.529,0,0,1-6.1,1.029A4.215,4.215,0,0,1,0,351.655a4.971,4.971,0,0,1,4.923-4.894,17.981,17.981,0,0,1,2.031.186l.024.32" transform="translate(0 -321.55)" fill="#12100e"/>
      <path id="Path_6" data-name="Path 6" d="M112.427,139.09c1.956-4.522,1.435-7.967-1.375-10.353a6.719,6.719,0,0,0-8.159-.5c-3.052,1.979-3.918,5.375-2.546,9.977-3.157-2.693-3.125-8.216.061-11.541a8.725,8.725,0,0,1,12.528-.171,8.5,8.5,0,0,1-.512,12.595" transform="translate(-91.221 -115.355)" fill="#12100e"/>
      <path id="Path_7" data-name="Path 7" d="M163.224,6.348a3.786,3.786,0,0,1,.671-5.289,4.233,4.233,0,0,1,5.7.085,4.026,4.026,0,0,1,.352,5.688c.113-3.53-.892-5.14-3.242-5.183-2.241-.041-3.317,1.411-3.482,4.7" transform="translate(-151.204 0.001)" fill="#12100e"/>
    </g>
  </g>
  <g id="Group_4" data-name="Group 4" transform="translate(39.256 0)">
    <g id="Group_3" data-name="Group 3" clip-path="url(#clip-path-2)">
      <path id="Path_8" data-name="Path 8" d="M18.376,13.8H7.337v4.359a29.864,29.864,0,0,1,3.248-1.5,8.606,8.606,0,0,1,2.238-.256,5.46,5.46,0,0,1,3.216,1,3.307,3.307,0,0,1,1.582,2.826q0,2.338-2.673,3.4a5.375,5.375,0,0,1-1.916.438l3.893,4.754-2.133,1.544-6-7.14L9.9,20.92a6.825,6.825,0,0,0,1.868.256A3.828,3.828,0,0,0,14.1,20.5a2.456,2.456,0,0,0,1.024-2.12q0-1.346-1.91-1.346a4.494,4.494,0,0,0-2.849,1.3,11.31,11.31,0,0,0-1.962,2.244A5.143,5.143,0,0,0,7.337,23.29v7.069l-2.928-1.3V13.8H2.272V11.78H4.308A16.529,16.529,0,0,0,2.559,3.764,15.9,15.9,0,0,0,1.262,1.9,13.179,13.179,0,0,1,0,0H3.413A10.876,10.876,0,0,1,5.469,3.041a19.359,19.359,0,0,1,1.8,8.739H18.376Z" transform="translate(0)" fill="#12100e"/>
      <path id="Path_9" data-name="Path 9" d="M233.22,145.575H222.012v2.712a.194.194,0,0,1,.135.068.184.184,0,0,0,.118.067.341.341,0,0,1-.152-.017,15.154,15.154,0,0,1,2.507-.538,10.248,10.248,0,0,1,1.834-.171q3.786,0,4.863,2.12.723,1.414.723,5.7V162q-.353-.135-2.675-1.094,0-.538-.218-.69-.892.522-1.464.791a9.791,9.791,0,0,1-4.224.858,6.39,6.39,0,0,1-5.119-2.087,3.357,3.357,0,0,1-.875-2.255,3.988,3.988,0,0,1,1.38-2.777,9.024,9.024,0,0,1,6.648-2.675,6.241,6.241,0,0,1,3.871,1.109v-1.548a4.164,4.164,0,0,0-1.439-1.262,4.381,4.381,0,0,0-1.91-.286,13.411,13.411,0,0,0-4.964.993q-1.01.421-1.969.758V150.59q.218-.185.64-.556a1.223,1.223,0,0,1,.085-.1v-4.351h-3.45v-2.019h16.862Zm-3.854,10.669q0-.741-1.767-1.329a8.033,8.033,0,0,0-2.44-.488,7.039,7.039,0,0,0-5.688,2.559,2.964,2.964,0,0,0-.86,1.681q.353,1.229,2.777,1.229a10.858,10.858,0,0,0,5.722-1.565q2.255-1.365,2.255-2.087" transform="translate(-198.604 -131.775)" fill="#12100e"/>
      <path id="Path_10" data-name="Path 10" d="M435.111,145.574h-1.834v6.4a10.128,10.128,0,0,0-2.861-1.01,13.756,13.756,0,0,0-3.029-.4,11.036,11.036,0,0,0-5.167,1.094,1.85,1.85,0,0,0-1.178,1.632q0,1.346,1.414,1.346a6.891,6.891,0,0,0,2.239-.505q.892-.32,2.289-.808a7.313,7.313,0,0,1,2.087-.2,5.208,5.208,0,0,1,4.342,1.8,3.125,3.125,0,0,1,.69,2.019q0,2.675-3.365,4.207a7.625,7.625,0,0,1-2.659.723,3.412,3.412,0,0,0,2.3,1.211,3.134,3.134,0,0,0,.758-.1l1.7,2.777a3.468,3.468,0,0,1-2.137.455,3.052,3.052,0,0,1-2.218-.892,11.067,11.067,0,0,1-1.379-2.036q-.758-1.33-1.262-1.346a9.65,9.65,0,0,1-4.8-1.128,2.024,2.024,0,0,1-1.06-1.8q0-1.414,1.683-1.414a8.185,8.185,0,0,1,2.6.967,7.857,7.857,0,0,0,3.256.967,9.92,9.92,0,0,0,4.8-1.211,1.7,1.7,0,0,0,1.094-1.45q0-1.28-2.019-1.28a27.158,27.158,0,0,0-4.022.909,14.565,14.565,0,0,1-2.457.538,5.178,5.178,0,0,1-4.409-2.524,4.484,4.484,0,0,1-.841-2.608q-.017-2.844,3.888-3.839a12.316,12.316,0,0,1,3.012-.4,19.206,19.206,0,0,1,4.577.791V145.57H417.748v-2.019h17.363Z" transform="translate(-383.466 -131.774)" fill="#12100e"/>
      <path id="Path_11" data-name="Path 11" d="M603.455,17.752H589.874v5.082a9.276,9.276,0,0,1,3.4-2.575,5.71,5.71,0,0,1,1.969-.32,6.547,6.547,0,0,1,6.142,4.039,7.407,7.407,0,0,1-1.682,9.138,15.588,15.588,0,0,1-1.28,1.161l-2.759-1.652q1.043-1.094,2.373-2.692a6.935,6.935,0,0,0,1.514-4.544,4.591,4.591,0,0,0-.741-2.73,2.677,2.677,0,0,0-2.423-1.246,6.063,6.063,0,0,0-3.1,1.094,9.128,9.128,0,0,0-2.457,2.255,4.587,4.587,0,0,0-1.06,2.73v6.681l-3.147-1.685V17.752h-1.851V15.733h1.851A13.828,13.828,0,0,0,584.052,7.3a12.07,12.07,0,0,0-2.861-2.957l3.4-.033q2.827,1.546,4.493,6.671a15.355,15.355,0,0,1,.791,4.755h13.58Z" transform="translate(-533.499 -3.954)" fill="#12100e"/>
      <path id="Path_12" data-name="Path 12" d="M850.483,40.9a.656.656,0,0,1-.387.067,1.488,1.488,0,0,1-.471-.067l-1.094-2.238a3.351,3.351,0,0,0-1.826-1.439,2.6,2.6,0,0,1-1.422-.833q-.256-.774-.976-2.373v-.387h.656a21,21,0,0,1,2.1.758,3.744,3.744,0,0,1,1.784,1.365,12.637,12.637,0,0,1,.774,2.154,14.253,14.253,0,0,0,.825,2.272,6.706,6.706,0,0,1,.033.723m.993,3.77h-6.849V42.648h6.849Zm-1.919,16.64L846.73,59.75V46.758h2.827Z" transform="translate(-775.025 -30.872)" fill="#12100e"/>
      <path id="Path_13" data-name="Path 13" d="M944.111,145.574h-1.834v6.4a10.129,10.129,0,0,0-2.86-1.01,13.76,13.76,0,0,0-3.03-.4,11.037,11.037,0,0,0-5.167,1.094,1.85,1.85,0,0,0-1.178,1.632q0,1.346,1.414,1.346a6.893,6.893,0,0,0,2.239-.505q.892-.32,2.289-.808a7.314,7.314,0,0,1,2.087-.2,5.208,5.208,0,0,1,4.341,1.8,3.126,3.126,0,0,1,.69,2.019q0,2.675-3.365,4.207a7.625,7.625,0,0,1-2.659.723,3.412,3.412,0,0,0,2.3,1.211,3.135,3.135,0,0,0,.758-.1l1.7,2.777a3.468,3.468,0,0,1-2.137.455,3.052,3.052,0,0,1-2.218-.892,11.055,11.055,0,0,1-1.379-2.036q-.758-1.33-1.262-1.346a9.648,9.648,0,0,1-4.8-1.128,2.023,2.023,0,0,1-1.061-1.8q0-1.414,1.683-1.414a8.185,8.185,0,0,1,2.6.967,7.855,7.855,0,0,0,3.256.967,9.921,9.921,0,0,0,4.8-1.211,1.7,1.7,0,0,0,1.094-1.45q0-1.28-2.019-1.28a27.161,27.161,0,0,0-4.022.909,14.567,14.567,0,0,1-2.457.538,5.178,5.178,0,0,1-4.409-2.524,4.483,4.483,0,0,1-.841-2.608q-.017-2.844,3.888-3.839a12.323,12.323,0,0,1,3.013-.4,19.211,19.211,0,0,1,4.577.791V145.57H926.748v-2.019h17.363Z" transform="translate(-850.7 -131.774)" fill="#12100e"/>
      <path id="Path_14" data-name="Path 14" d="M1112.459,17.752h-13.58v5.082a9.277,9.277,0,0,1,3.4-2.575,5.707,5.707,0,0,1,1.969-.32,6.547,6.547,0,0,1,6.142,4.039,7.407,7.407,0,0,1-1.682,9.138,15.609,15.609,0,0,1-1.28,1.161l-2.76-1.649q1.043-1.094,2.373-2.692a6.938,6.938,0,0,0,1.514-4.544,4.591,4.591,0,0,0-.74-2.73,2.677,2.677,0,0,0-2.423-1.246,6.063,6.063,0,0,0-3.1,1.094,9.131,9.131,0,0,0-2.457,2.255,4.586,4.586,0,0,0-1.06,2.73v6.681l-3.147-1.685V17.752h-1.851V15.733h1.851a13.827,13.827,0,0,0-2.575-8.436,12.065,12.065,0,0,0-2.86-2.957l3.4-.033q2.827,1.546,4.494,6.671a15.355,15.355,0,0,1,.791,4.755h13.58Z" transform="translate(-1000.736 -3.954)" fill="#12100e"/>
      <path id="Path_15" data-name="Path 15" d="M1481.032,143.555l-.033,2.019h-14.17v9.94a5.3,5.3,0,0,0,.757,3.185,3.84,3.84,0,0,0,3,1.194,4.325,4.325,0,0,0,2.73-.892,7.015,7.015,0,0,0,2-2.137,5.31,5.31,0,0,0,.858-2.76v-6.345l3.483,1.211V166.2a6,6,0,0,1-2.9,5.133,10.83,10.83,0,0,1-6.276,1.834q-6.092,0-8.667-3.315a4.055,4.055,0,0,1-1.043-2.3,4.175,4.175,0,0,1,2.356-3.534,8.133,8.133,0,0,1,4.291-1.262l2.138,2.861a15.154,15.154,0,0,0-5.183,1.229q-1.5.673-1.5,1.734.185,1.531,2.3,2.71a6.642,6.642,0,0,0,3.265.707q4.594,0,6.933-2.979a5.182,5.182,0,0,0,1.109-3.3V158.87q-1.094,1.784-5.84,1.784a7.088,7.088,0,0,1-6.041-2.73,4.883,4.883,0,0,1-1.01-3.032v-9.317h-2.389v-2.019Z" transform="translate(-1340.903 -131.775)" fill="#12100e"/>
      <path id="Path_16" data-name="Path 16" d="M1719.176,145.575h-3.786v4.632a8.035,8.035,0,0,0,1.346,1.5,5.485,5.485,0,0,1,1.024,3.571,6.086,6.086,0,0,1-3.413,5.711,7.263,7.263,0,0,1-3.517.876,9.006,9.006,0,0,1-5.688-2.44q-3.063-2.559-3.063-5.553a5.156,5.156,0,0,1,.993-2.861,8.229,8.229,0,0,1,2.154-2.2,6.277,6.277,0,0,1,3.651-1.043,14.723,14.723,0,0,1,3.484.623c.067,0,.1-.045.1-.136v-2.675h-11.544v-2.019h18.257Zm-3.888,7.461a3.109,3.109,0,0,0-2.087-3.186,3.753,3.753,0,0,0-1.329-.3,7.507,7.507,0,0,0-4.493,1.871,6.781,6.781,0,0,0-2.81,5.579,2.97,2.97,0,0,0,1.817,2.6,3.415,3.415,0,0,0,1.666.456,7.536,7.536,0,0,0,4.577-2.023,6.313,6.313,0,0,0,2.659-4.989" transform="translate(-1561.343 -131.775)" fill="#12100e"/>
      <path id="Path_17" data-name="Path 17" d="M1884.167,164.555q0,3.13-3.03,3.13a9.823,9.823,0,0,1-3.9-1.28,11.149,11.149,0,0,0-4.746-1.414,11.54,11.54,0,0,0-7.774,3.248,11.365,11.365,0,0,0-2.743,3.685,3.936,3.936,0,0,1-.067-.858,7.709,7.709,0,0,1,1.211-4.022,10.115,10.115,0,0,1,2.878-3.1,7.673,7.673,0,0,1,4.527-1.4,7.3,7.3,0,0,1,3.046.589,24.848,24.848,0,0,1,2.659,1.649,5.336,5.336,0,0,0,2.575,1.144,4.128,4.128,0,0,0,3.533-1.834,2.65,2.65,0,0,0,.573-1.548,3.217,3.217,0,0,0-.808-2.23,2.713,2.713,0,0,0-2.121-.9,11.76,11.76,0,0,0-3.989,1.22,11.765,11.765,0,0,1-3.989,1.22,3.984,3.984,0,0,1-2.154-.893q-2.625-1.869-2.625-3.487a2.069,2.069,0,0,1,.993-1.635,3.5,3.5,0,0,1,1.834-.775l.033-.185-.825-1.163a3.586,3.586,0,0,1-.69-2.106q0-3.874,6.313-3.874.184-.034.256-.3v-1.87h-8.7v-2.019h17.3v2.019h-5.972v2.84q0,.794.453.98.284,0,.72-.526l.648-.768a1.561,1.561,0,0,1,.908-.341,2.645,2.645,0,0,1,2.018,1.211,2.932,2.932,0,0,1,.571,1.109l-1.766,2.019a3.846,3.846,0,0,0-.32-1.414q-.387-.858-1.01-.858a1.038,1.038,0,0,0-.556.218q-.319.219-.319.438a1.206,1.206,0,0,0,.218.606,4.2,4.2,0,0,1,.285.522,3.416,3.416,0,0,1,.118.976,3.047,3.047,0,0,1-1.852,3.08,10.279,10.279,0,0,1-3.871.538q-3.365,0-4.594,1.5a1.585,1.585,0,0,0-.47.959,1.149,1.149,0,0,0,.5.884,1.628,1.628,0,0,0,1.009.379,11.025,11.025,0,0,0,3.686-1.329,13.254,13.254,0,0,1,5.182-1.6,3.584,3.584,0,0,1,3.03,1.6,8.245,8.245,0,0,1,1.431,3.3,13.688,13.688,0,0,1,.387,2.659m-6.546-13.513q0-2.036-2.171-2.036a5.288,5.288,0,0,0-3.315,1.228,3.781,3.781,0,0,0-1.684,3.012,2.071,2.071,0,0,0,.715,1.582,2.356,2.356,0,0,0,1.64.656,4.265,4.265,0,0,0,2.171-.69,6.8,6.8,0,0,0,1.784-1.45,3.461,3.461,0,0,0,.858-2.3" transform="translate(-1709.119 -131.774)" fill="#12100e"/>
      <path id="Path_18" data-name="Path 18" d="M2136.137,145.575h-11.212v2.712a.194.194,0,0,1,.135.068.184.184,0,0,0,.118.067.339.339,0,0,1-.152-.017,15.154,15.154,0,0,1,2.507-.538,10.244,10.244,0,0,1,1.834-.171q3.787,0,4.863,2.12.723,1.414.724,5.7V162q-.354-.135-2.676-1.094,0-.538-.219-.69-.891.522-1.464.791a9.789,9.789,0,0,1-4.223.858,6.39,6.39,0,0,1-5.119-2.087,3.357,3.357,0,0,1-.875-2.255,3.99,3.99,0,0,1,1.379-2.777,9.024,9.024,0,0,1,6.647-2.675,6.242,6.242,0,0,1,3.871,1.109v-1.548a4.167,4.167,0,0,0-1.439-1.262,4.381,4.381,0,0,0-1.91-.286,13.418,13.418,0,0,0-4.965.993q-1.009.421-1.969.758V150.59q.218-.185.639-.556a1.2,1.2,0,0,1,.085-.1v-4.351h-3.45v-2.019h16.862Zm-3.853,10.669q0-.741-1.767-1.329a8.035,8.035,0,0,0-2.44-.488,7.038,7.038,0,0,0-5.687,2.559,2.964,2.964,0,0,0-.859,1.683q.354,1.229,2.777,1.229a10.855,10.855,0,0,0,5.721-1.565q2.255-1.365,2.255-2.087" transform="translate(-1945.373 -131.775)" fill="#12100e"/>
    </g>
  </g>
</svg>
