<svg id="Group_2" data-name="Group 2" xmlns="http://www.w3.org/2000/svg" xmlns:xlink="http://www.w3.org/1999/xlink" width="44.95" height="49.589" viewBox="0 0 44.95 49.589">
  <defs>
    <clipPath id="clip-path">
      <rect id="Rectangle_2" data-name="Rectangle 2" width="44.95" height="49.589" fill="none"/>
    </clipPath>
  </defs>
  <g id="Group_1" data-name="Group 1" transform="translate(0 0)" clip-path="url(#clip-path)">
    <path id="Path_5" data-name="Path 5" d="M10.116,348.1a12.469,12.469,0,0,0-3.3,1.719,4.309,4.309,0,0,0-1.494,3.148,3.9,3.9,0,0,0,2.72,2.172c3.736.666,7.164-.658,10.484-2.242,3.9-1.855,7.766-3.782,11.716-5.522a37.292,37.292,0,0,1,5.208-1.543,7,7,0,0,1,7.943,2.317c1.637,2.041,2.082,6.1.841,8.061-1.826,2.888-4.735,3.532-7.906,3.49a10.549,10.549,0,0,1-1.72-.345c1.7-1.105,3.249-1.978,4.634-3.047,1.458-1.13,2.6-2.866,1.342-4.436a5.628,5.628,0,0,0-4.177-1.545,16.183,16.183,0,0,0-5.4,1.643c-5.226,2.285-10.307,4.928-15.628,6.958a25.4,25.4,0,0,1-8.843,1.491c-3.91.007-6.607-2.793-6.533-5.96a7.2,7.2,0,0,1,7.135-7.092,26.064,26.064,0,0,1,2.944.27l.035.464" transform="translate(0 -310.83)" fill="#12100e"/>
    <path id="Path_6" data-name="Path 6" d="M118.909,145.9c2.835-6.553,2.08-11.547-1.993-15a9.738,9.738,0,0,0-11.825-.731c-4.423,2.868-5.679,7.789-3.689,14.459-4.575-3.9-4.529-11.907.089-16.726a12.645,12.645,0,0,1,18.157-.247,12.325,12.325,0,0,1-.742,18.253" transform="translate(-88.176 -111.503)" fill="#12100e"/>
    <path id="Path_7" data-name="Path 7" d="M163.576,9.2a5.487,5.487,0,0,1,.972-7.666,6.135,6.135,0,0,1,8.26.124c2.423,2.214,2.621,5.419.509,8.243.164-5.116-1.293-7.449-4.7-7.511-3.248-.059-4.807,2.045-5.046,6.81" transform="translate(-146.156 0.001)" fill="#12100e"/>
  </g>
</svg>
